<?xml version="1.0" standalone="no"?>
<!DOCTYPE svg PUBLIC "-//W3C//DTD SVG 20010904//EN"
 "http://www.w3.org/TR/2001/REC-SVG-20010904/DTD/svg10.dtd">
<svg version="1.0" xmlns="http://www.w3.org/2000/svg"
 width="1000.000000pt" height="1000.000000pt" viewBox="0 0 1000.000000 1000.000000"
 preserveAspectRatio="xMidYMid meet">

<g transform="translate(0.000000,1000.000000) scale(0.100000,-0.100000)"
fill="#ffffff" stroke="none">
<path d="M5972 6865 c-40 -29 -65 -93 -70 -180 -5 -102 10 -176 54 -265 41
-82 81 -116 150 -129 89 -17 121 -86 65 -142 -36 -36 -85 -38 -165 -9 -99 38
-184 134 -232 263 -13 36 -28 61 -35 59 -6 -2 -63 -23 -125 -47 -135 -53 -323
-108 -449 -131 -134 -24 -364 -15 -507 20 -206 50 -289 60 -523 60 -175 1
-237 -3 -303 -17 -411 -89 -807 -347 -1007 -657 -118 -182 -185 -400 -185
-601 l0 -78 -32 -5 c-46 -8 -362 -46 -376 -46 -9 0 -12 -174 -12 -701 l0 -701
37 6 c21 4 205 26 408 51 204 25 386 47 406 51 33 5 37 3 49 -27 26 -61 106
-174 155 -217 102 -90 271 -147 517 -177 218 -26 556 -29 1233 -10 648 18
1203 16 1415 -5 167 -16 329 -46 435 -81 94 -30 99 -30 112 -13 7 10 12 23 10
29 -9 31 -197 97 -386 135 -317 63 -640 89 -1476 115 -954 30 -1273 56 -1490
126 -108 34 -174 74 -205 123 -12 21 -21 39 -19 41 2 2 468 60 1034 130 2840
348 3307 405 3316 405 5 0 9 267 9 701 l0 701 -32 -5 c-87 -16 -1690 -208
-1695 -204 -11 12 74 163 116 206 91 94 203 127 471 140 136 7 189 14 240 31
131 43 262 130 360 237 59 65 132 172 124 185 -9 13 -78 8 -98 -7 -31 -23 -83
-19 -111 10 -32 31 -32 75 -1 112 l24 28 -101 38 c-188 69 -352 106 -549 122
-64 5 -78 3 -78 -9 0 -8 -14 -26 -32 -41 -25 -21 -38 -25 -62 -21 -49 9 -72
44 -79 119 -12 124 -60 223 -132 267 -48 30 -142 38 -173 15z m695 -506 c34
-18 48 -62 32 -100 -33 -81 -215 -77 -242 5 -14 41 13 93 53 103 41 11 130 6
157 -8z m-2867 -438 c380 -89 682 -300 794 -554 13 -28 26 -66 30 -83 l7 -32
-68 -6 c-37 -4 -75 -9 -84 -12 -12 -3 -21 9 -34 43 -90 238 -456 465 -805 498
-94 9 -107 13 -130 37 -29 31 -26 83 6 115 25 25 29 26 112 20 48 -3 125 -15
172 -26z m3230 -786 c0 -47 -2 -85 -4 -85 -8 0 -161 -20 -193 -26 l-33 -5 0
-288 0 -288 -94 -11 c-52 -7 -100 -12 -105 -12 -8 0 -11 92 -11 288 l0 288
-97 -12 c-147 -20 -133 -27 -133 69 l0 84 323 40 c177 23 328 42 335 42 9 1
12 -22 12 -84z m-740 -379 l0 -373 -67 -7 c-38 -4 -85 -9 -105 -13 l-38 -6 0
376 0 375 78 9 c42 6 89 11 105 12 l27 1 0 -374z m-360 -45 c0 -204 -4 -372
-8 -375 -4 -2 -46 -7 -92 -10 l-85 -6 -160 172 -160 172 -3 -196 -2 -195 -95
-11 c-51 -7 -99 -12 -105 -12 -7 0 -9 113 -8 373 l3 372 85 11 85 12 105 -112
c57 -61 133 -140 167 -176 l63 -65 0 197 0 196 73 10 c39 5 87 10 105 11 l32
1 0 -369z m-934 -115 c90 -192 163 -350 162 -351 -4 -3 -181 -25 -202 -25 -11
0 -26 21 -46 65 -34 76 -18 72 -214 47 l-129 -17 -29 -76 -30 -76 -105 -13
c-57 -7 -105 -11 -107 -9 -1 2 71 180 162 395 l164 391 82 10 c44 6 92 10 105
9 21 -1 41 -38 187 -350z m-746 193 c0 -43 -3 -79 -7 -79 -5 0 -90 -9 -190
-21 l-183 -22 0 -63 0 -63 28 4 c34 7 272 35 289 35 10 0 13 -21 13 -78 l0
-79 -147 -17 c-82 -10 -156 -20 -165 -22 -15 -4 -18 -17 -18 -70 0 -45 4 -64
13 -64 6 1 94 11 195 23 l182 23 0 -83 c0 -46 -2 -83 -5 -83 -3 0 -134 -16
-291 -35 -156 -19 -289 -35 -294 -35 -6 0 -10 139 -10 373 l0 373 288 35 c158
20 290 34 295 32 4 -2 7 -40 7 -84z m-720 -259 c0 -145 -5 -281 -11 -309 -21
-98 -101 -183 -199 -211 -113 -33 -246 -18 -309 36 l-31 26 48 61 c26 33 52
68 58 76 10 13 16 11 43 -11 17 -15 40 -30 52 -33 34 -11 84 3 110 31 23 25
24 31 27 215 3 151 1 189 -10 189 -7 0 -60 -7 -118 -15 -58 -8 -111 -15 -118
-15 -10 0 -12 20 -10 82 l3 83 205 26 c113 15 217 27 233 28 l27 1 0 -260z"/>
<path d="M4705 4678 c-9 -24 -30 -78 -46 -120 l-28 -78 47 6 c26 4 68 9 94 13
l47 6 -45 105 c-25 57 -47 106 -48 108 -2 1 -11 -16 -21 -40z"/>
</g>
</svg>
